<?xml version="1.0" encoding="UTF-8" standalone="no"?>
<svg width="189px" height="75px" viewBox="0 0 189 75" version="1.1" xmlns="http://www.w3.org/2000/svg" xmlns:xlink="http://www.w3.org/1999/xlink">
    <!-- Generator: Sketch 41.2 (35397) - http://www.bohemiancoding.com/sketch -->
    <title>udp-ios-en</title>
    <desc>Created with Sketch.</desc>
    <defs>
        <rect id="path-1" x="0" y="0" width="173" height="56" rx="28"></rect>
        <filter x="-50%" y="-50%" width="200%" height="200%" filterUnits="objectBoundingBox" id="filter-2">
            <feOffset dx="0" dy="4" in="SourceAlpha" result="shadowOffsetOuter1"></feOffset>
            <feGaussianBlur stdDeviation="2" in="shadowOffsetOuter1" result="shadowBlurOuter1"></feGaussianBlur>
            <feColorMatrix values="0 0 0 0 0   0 0 0 0 0   0 0 0 0 0  0 0 0 0.104223279 0" type="matrix" in="shadowBlurOuter1" result="shadowMatrixOuter1"></feColorMatrix>
            <feOffset dx="0" dy="0" in="SourceAlpha" result="shadowOffsetOuter2"></feOffset>
            <feGaussianBlur stdDeviation="2" in="shadowOffsetOuter2" result="shadowBlurOuter2"></feGaussianBlur>
            <feColorMatrix values="0 0 0 0 0   0 0 0 0 0   0 0 0 0 0  0 0 0 0.24 0" type="matrix" in="shadowBlurOuter2" result="shadowMatrixOuter2"></feColorMatrix>
            <feMerge>
                <feMergeNode in="shadowMatrixOuter1"></feMergeNode>
                <feMergeNode in="shadowMatrixOuter2"></feMergeNode>
            </feMerge>
        </filter>
    </defs>
    <g id="Page-1" stroke="none" stroke-width="1" fill="none" fill-rule="evenodd">
        <g id="udp-ios-en">
            <g id="Group-13" transform="translate(8.000000, 7.000000)">
                <g id="Group-6" transform="translate(63.000000, 14.000000)"></g>
                <g id="Group-6-Copy-5" transform="translate(25.000000, 14.000000)"></g>
                <g id="BG-Copy-3">
                    <use fill="black" fill-opacity="1" filter="url(#filter-2)" xlink:href="#path-1"></use>
                    <use fill="#00AF66" fill-rule="evenodd" xlink:href="#path-1"></use>
                </g>
                <g id="Group-18" transform="translate(25.000000, 14.000000)">
                    <path d="M45.232,14.72 L43.408,14.72 L38.48,26 L40.496,26 L41.648,23.296 L46.944,23.296 L48.08,26 L50.16,26 L45.232,14.72 Z M46.224,21.552 L42.368,21.552 L44.288,17.072 L46.224,21.552 Z M61.092,21.776 C61.092,18.96 59.156,17.376 57.156,17.376 C55.796,17.376 54.916,18.08 54.292,18.96 L54.292,17.552 L52.356,17.552 L52.356,28.56 L54.292,28.56 L54.292,24.688 C54.884,25.472 55.764,26.176 57.156,26.176 C59.172,26.176 61.092,24.592 61.092,21.776 Z M59.124,21.776 C59.124,23.456 58.036,24.496 56.708,24.496 C55.396,24.496 54.244,23.424 54.244,21.776 C54.244,20.128 55.396,19.056 56.708,19.056 C58.02,19.056 59.124,20.112 59.124,21.776 Z M72.312,21.776 C72.312,18.96 70.376,17.376 68.376,17.376 C67.016,17.376 66.136,18.08 65.512,18.96 L65.512,17.552 L63.576,17.552 L63.576,28.56 L65.512,28.56 L65.512,24.688 C66.104,25.472 66.984,26.176 68.376,26.176 C70.392,26.176 72.312,24.592 72.312,21.776 Z M70.344,21.776 C70.344,23.456 69.256,24.496 67.928,24.496 C66.616,24.496 65.464,23.424 65.464,21.776 C65.464,20.128 66.616,19.056 67.928,19.056 C69.24,19.056 70.344,20.112 70.344,21.776 Z M86.128,23.504 L86.128,23.472 C86.128,21.952 84.736,21.392 83.504,21.008 C82.512,20.688 81.6,20.432 81.6,19.824 L81.6,19.792 C81.6,19.296 82.032,18.944 82.784,18.944 C83.488,18.944 84.352,19.248 85.168,19.744 L85.936,18.368 C85.04,17.776 83.888,17.408 82.832,17.408 C81.152,17.408 79.824,18.384 79.824,19.984 L79.824,20.016 C79.824,21.632 81.216,22.144 82.464,22.496 C83.456,22.8 84.352,23.024 84.352,23.68 L84.352,23.712 C84.352,24.272 83.872,24.624 83.04,24.624 C82.176,24.624 81.184,24.272 80.272,23.584 L79.408,24.896 C80.464,25.728 81.792,26.16 82.992,26.16 C84.752,26.16 86.128,25.28 86.128,23.504 Z M90.772,19.216 L93.044,19.216 L93.044,17.552 L90.772,17.552 L90.772,15.232 L88.836,15.232 L88.836,17.552 L87.764,17.552 L87.764,19.216 L88.836,19.216 L88.836,23.664 C88.836,25.52 89.844,26.144 91.268,26.144 C91.988,26.144 92.532,25.984 93.012,25.712 L93.012,24.128 C92.628,24.32 92.244,24.416 91.812,24.416 C91.156,24.416 90.772,24.112 90.772,23.36 L90.772,19.216 Z M103.8,21.776 C103.8,19.344 101.896,17.376 99.304,17.376 C96.712,17.376 94.792,19.376 94.792,21.808 C94.792,24.224 96.696,26.192 99.272,26.192 C101.88,26.192 103.8,24.192 103.8,21.776 Z M101.864,21.808 C101.864,23.296 100.872,24.512 99.304,24.512 C97.8,24.512 96.728,23.28 96.728,21.776 C96.728,20.288 97.72,19.072 99.272,19.072 C100.792,19.072 101.864,20.304 101.864,21.808 Z M108.204,22.784 C108.204,20.544 109.388,19.44 111.084,19.44 L111.196,19.44 L111.196,17.392 C109.708,17.328 108.732,18.192 108.204,19.456 L108.204,17.552 L106.268,17.552 L106.268,26 L108.204,26 L108.204,22.784 Z M114.848,22.464 L121.056,22.464 C121.072,22.272 121.088,22.112 121.088,21.936 C121.088,19.488 119.728,17.376 117.04,17.376 C114.624,17.376 112.912,19.36 112.912,21.792 C112.912,24.416 114.8,26.192 117.248,26.192 C118.8,26.192 119.904,25.568 120.704,24.608 L119.568,23.6 C118.896,24.256 118.224,24.608 117.28,24.608 C116.032,24.608 115.072,23.84 114.848,22.464 Z M114.832,21.184 C115.008,19.872 115.84,18.96 117.024,18.96 C118.304,18.96 119.04,19.936 119.168,21.184 L114.832,21.184 Z" id="App-store" fill="#FFFFFF"></path>
                    <path d="M45.23,5.49 C45.23,3.51 43.71,2 41.51,2 L38.9,2 L38.9,9 L41.51,9 C43.71,9 45.23,7.47 45.23,5.49 Z M43.94,5.51 C43.94,6.89 42.98,7.88 41.51,7.88 L40.13,7.88 L40.13,3.12 L41.51,3.12 C42.98,3.12 43.94,4.13 43.94,5.51 Z M51.82,6.36 C51.82,4.84 50.63,3.61 49.01,3.61 C47.39,3.61 46.19,4.86 46.19,6.38 C46.19,7.89 47.38,9.12 48.99,9.12 C50.62,9.12 51.82,7.87 51.82,6.36 Z M50.61,6.38 C50.61,7.31 49.99,8.07 49.01,8.07 C48.07,8.07 47.4,7.3 47.4,6.36 C47.4,5.43 48.02,4.67 48.99,4.67 C49.94,4.67 50.61,5.44 50.61,6.38 Z M56.76,3.7 L55.73,3.7 L54.56,7.34 L53.5,3.72 L52.26,3.72 L53.97,9.04 L55.05,9.04 L56.24,5.43 L57.42,9.04 L58.5,9.04 L60.23,3.72 L59.02,3.72 L57.94,7.34 L56.76,3.7 Z M62.42,6.02 C62.42,5.2 62.91,4.71 63.61,4.71 C64.33,4.71 64.74,5.18 64.74,6 L64.74,9 L65.95,9 L65.95,5.64 C65.95,4.41 65.26,3.61 64.07,3.61 C63.25,3.61 62.76,4.04 62.42,4.54 L62.42,3.72 L61.21,3.72 L61.21,9 L62.42,9 L62.42,6.02 Z M68.59,9 L68.59,1.7 L67.38,1.7 L67.38,9 L68.59,9 Z M75.41,6.36 C75.41,4.84 74.22,3.61 72.6,3.61 C70.98,3.61 69.78,4.86 69.78,6.38 C69.78,7.89 70.97,9.12 72.58,9.12 C74.21,9.12 75.41,7.87 75.41,6.36 Z M74.2,6.38 C74.2,7.31 73.58,8.07 72.6,8.07 C71.66,8.07 70.99,7.3 70.99,6.36 C70.99,5.43 71.61,4.67 72.58,4.67 C73.53,4.67 74.2,5.44 74.2,6.38 Z M80.97,9 L80.97,5.87 C80.97,4.46 80.21,3.64 78.65,3.64 C77.79,3.64 77.22,3.82 76.64,4.08 L76.97,5.05 C77.45,4.85 77.89,4.72 78.48,4.72 C79.32,4.72 79.78,5.12 79.78,5.85 L79.78,5.98 C79.37,5.85 78.96,5.76 78.32,5.76 C77.09,5.76 76.18,6.32 76.18,7.46 L76.18,7.48 C76.18,8.54 77.06,9.11 78.06,9.11 C78.86,9.11 79.41,8.78 79.77,8.35 L79.77,9 L80.97,9 Z M79.8,7.09 C79.8,7.75 79.2,8.2 78.4,8.2 C77.83,8.2 77.38,7.92 77.38,7.42 L77.38,7.4 C77.38,6.86 77.83,6.55 78.59,6.55 C79.06,6.55 79.49,6.64 79.8,6.76 L79.8,7.09 Z M87.5,9 L87.5,1.7 L86.29,1.7 L86.29,4.54 C85.91,4.05 85.36,3.61 84.49,3.61 C83.23,3.61 82.04,4.6 82.04,6.36 C82.04,8.12 83.25,9.11 84.49,9.11 C85.35,9.11 85.9,8.67 86.29,8.12 L86.29,9 L87.5,9 Z M86.31,6.36 C86.31,7.39 85.59,8.06 84.78,8.06 C83.96,8.06 83.26,7.4 83.26,6.36 C83.26,5.3 83.95,4.66 84.78,4.66 C85.59,4.66 86.31,5.33 86.31,6.36 Z M97.15,6.36 C97.15,4.84 95.96,3.61 94.34,3.61 C92.72,3.61 91.52,4.86 91.52,6.38 C91.52,7.89 92.71,9.12 94.32,9.12 C95.95,9.12 97.15,7.87 97.15,6.36 Z M95.94,6.38 C95.94,7.31 95.32,8.07 94.34,8.07 C93.4,8.07 92.73,7.3 92.73,6.36 C92.73,5.43 93.35,4.67 94.32,4.67 C95.27,4.67 95.94,5.44 95.94,6.38 Z M99.49,6.02 C99.49,5.2 99.98,4.71 100.68,4.71 C101.4,4.71 101.81,5.18 101.81,6 L101.81,9 L103.02,9 L103.02,5.64 C103.02,4.41 102.33,3.61 101.14,3.61 C100.32,3.61 99.83,4.04 99.49,4.54 L99.49,3.72 L98.28,3.72 L98.28,9 L99.49,9 L99.49,6.02 Z M108.74,4.76 L110.16,4.76 L110.16,3.72 L108.74,3.72 L108.74,2.27 L107.53,2.27 L107.53,3.72 L106.86,3.72 L106.86,4.76 L107.53,4.76 L107.53,7.54 C107.53,8.7 108.16,9.09 109.05,9.09 C109.5,9.09 109.84,8.99 110.14,8.82 L110.14,7.83 C109.9,7.95 109.66,8.01 109.39,8.01 C108.98,8.01 108.74,7.82 108.74,7.35 L108.74,4.76 Z M112.49,6.02 C112.49,5.2 112.98,4.71 113.68,4.71 C114.4,4.71 114.81,5.18 114.81,6 L114.81,9 L116.02,9 L116.02,5.64 C116.02,4.41 115.33,3.61 114.14,3.61 C113.32,3.61 112.83,4.04 112.49,4.54 L112.49,1.7 L111.28,1.7 L111.28,9 L112.49,9 L112.49,6.02 Z M118.3,6.79 L122.18,6.79 C122.19,6.67 122.2,6.57 122.2,6.46 C122.2,4.93 121.35,3.61 119.67,3.61 C118.16,3.61 117.09,4.85 117.09,6.37 C117.09,8.01 118.27,9.12 119.8,9.12 C120.77,9.12 121.46,8.73 121.96,8.13 L121.25,7.5 C120.83,7.91 120.41,8.13 119.82,8.13 C119.04,8.13 118.44,7.65 118.3,6.79 Z M118.29,5.99 C118.4,5.17 118.92,4.6 119.66,4.6 C120.46,4.6 120.92,5.21 121,5.99 L118.29,5.99 Z" id="Download-on-the" fill="#FFFFFF"></path>
                    <path d="M25,20.0610194 C24.5707085,21.4369535 23.8937591,22.812867 22.9691314,24.1888011 C21.5491673,26.3462659 20.1347283,27.4249821 18.7257717,27.4249821 C18.1864055,27.4249821 17.415894,27.2488651 16.4142139,26.896626 C15.4675712,26.5443868 14.6365195,26.3682699 13.9210337,26.3682699 C13.2495779,26.3682699 12.468059,26.5498905 11.5764537,26.9131371 C10.6848484,27.2873912 9.95836605,27.4745154 9.39698492,27.4745154 C7.72384902,27.4745154 6.06724917,26.0490691 4.42713568,23.1981335 C2.80903714,20.3251831 2,17.5568451 2,14.8930366 C2,12.3833327 2.6219129,10.3249662 3.86575736,8.71787509 C5.10960182,7.13279897 6.67263955,6.34027279 8.55491744,6.34027279 C9.34745551,6.34027279 10.3216023,6.50538241 11.4773869,6.8356066 C12.6221641,7.1658308 13.3816684,7.33094042 13.7559225,7.33094042 C14.2512588,7.33094042 15.0382813,7.14381618 16.1170136,6.7695621 C17.2397759,6.39530801 18.191908,6.20818378 18.9734386,6.20818378 C20.2833279,6.20818378 21.4556062,6.56592128 22.4903087,7.28140704 C23.0626973,7.67767607 23.6350773,8.22804146 24.2074659,8.93251974 C23.3378755,9.67002044 22.710459,10.3194516 22.3251974,10.8808327 C21.6097117,11.9155352 21.2519742,13.0547916 21.2519742,14.298636 C21.2519742,15.6635627 21.6317263,16.8908775 22.3912419,17.9806174 C23.1507576,19.0703572 24.0203349,19.7638176 25,20.0610194 Z M18.7918162,0.693467337 C18.7918162,1.36492319 18.6322103,2.11342014 18.3129935,2.93898062 C17.9827693,3.7645411 17.4709295,4.52404535 16.7774587,5.21751615 C16.1830552,5.8119197 15.5886605,6.20818279 14.994257,6.4063173 C14.5869805,6.5273995 14.0146005,6.62096162 13.2770998,6.68700646 C13.3101222,5.04689297 13.7394072,3.6324539 14.5649677,2.44364681 C15.3795207,1.26584719 16.7554342,0.451306396 18.6927495,0 C18.7037569,0.0330224192 18.7175161,0.0935626131 18.7340273,0.181622398 C18.7505385,0.269682182 18.7642976,0.330222376 18.7753051,0.363244795 C18.7753051,0.407274688 18.7780569,0.462311228 18.7835607,0.528356066 C18.7890644,0.594400905 18.7918162,0.649437444 18.7918162,0.693467337 Z" id="" fill="#FFFFFF"></path>
                    <rect id="Rectangle-3" x="0" y="0" width="28" height="28"></rect>
                </g>
            </g>
        </g>
    </g>
</svg>